# xmcd
# 
# Track frame offsets:
#     150
#     21707
#     48277
#     69170
#     98810
#     125872
#     149672
#     171382
# 
# Disc length: 2674
# 
# Revision: 1
# Processed by: cddbd v1.5.2PL0 Copyright (c) Steve Scherf et al.
# Submitted via: BonkEnc v1.0
# 
DISCID=7a0a7008
DTITLE=West Road Blues Band - Live In Kyoto #1
DYEAR=0
DGENRE=
TTITLE0=I Wish My Baby
TTITLE1=Somebody's Got To Go - Tired Of Your Jive
TTITLE2=If I Had It To Do All Over Again
TTITLE3=Black Eyed Blues
TTITLE4=I've Got To Love Somebody's Baby
TTITLE5=I'll Sing The Blues For You
TTITLE6=Treat Me So Low Down
TTITLE7=Hymn To Freedom (Instrumental)
EXTD=
EXTT0=
EXTT1=
EXTT2=
EXTT3=
EXTT4=
EXTT5=
EXTT6=
EXTT7=
PLAYORDER=
